STARTFONT 2.1
FONT -Adobe-New Century Schoolbook-Medium-R-Normal--17-120-100-100-P-91-ISO8859-2
SIZE 12 100 100
FONTBOUNDINGBOX 20 19 -3 -3
COMMENT $XConsortium: ncenR12.bdf,v 1.7 95/01/26 17:57:07 gildea Exp $
COMMENT 
COMMENT +
COMMENT  Copyright 1984-1989, 1994 Adobe Systems Incorporated.
COMMENT  Copyright 1988, 1994 Digital Equipment Corporation.
COMMENT
COMMENT  Adobe is a trademark of Adobe Systems Incorporated which may be
COMMENT  registered in certain jurisdictions.
COMMENT  Permission to use these trademarks is hereby granted only in
COMMENT  association with the images described in this file.
COMMENT
COMMENT  Permission to use, copy, modify, distribute and sell this software
COMMENT  and its documentation for any purpose and without fee is hereby
COMMENT  granted, provided that the above copyright notices appear in all
COMMENT  copies and that both those copyright notices and this permission
COMMENT  notice appear in supporting documentation, and that the names of
COMMENT  Adobe Systems and Digital Equipment Corporation not be used in
COMMENT  advertising or publicity pertaining to distribution of the software
COMMENT  without specific, written prior permission.  Adobe Systems and
COMMENT  Digital Equipment Corporation make no representations about the
COMMENT  suitability of this software for any purpose.  It is provided "as
COMMENT  is" without express or implied warranty.
COMMENT -
COMMENT  
COMMENT  Translation to ISO8859-2 by Cub Soft;  Petr.Kolar@vslib.cz
COMMENT  
STARTPROPERTIES 28
FOUNDRY "Adobe"
FAMILY_NAME "New Century Schoolbook"
WEIGHT_NAME "Medium"
SLANT "R"
SETWIDTH_NAME "Normal"
ADD_STYLE_NAME ""
PIXEL_SIZE 17
POINT_SIZE 120
RESOLUTION_X 100
RESOLUTION_Y 100
SPACING "P"
AVERAGE_WIDTH 91
CHARSET_REGISTRY "ISO8859"
CHARSET_ENCODING "2"
CAP_HEIGHT 12
X_HEIGHT 8
FONT_ASCENT 14
FONT_DESCENT 3
FACE_NAME "New Century Schoolbook Roman"

STARTCHAR space
ENCODING 32
SWIDTH 278 0
DWIDTH 4 0
BBX 1 1 1 0
BITMAP
00
ENDCHAR
STARTCHAR exclam
ENCODING 33
SWIDTH 296 0
DWIDTH 5 0
BBX 2 12 1 0
BITMAP
c0
c0
c0
c0
c0
80
80
80
80
00
c0
c0
ENDCHAR
STARTCHAR quotedbl
ENCODING 34
SWIDTH 389 0
DWIDTH 6 0
BBX 4 4 1 8
BITMAP
90
90
90
90
ENDCHAR
STARTCHAR numbersign
ENCODING 35
SWIDTH 556 0
DWIDTH 9 0
BBX 8 12 0 0
BITMAP
12
12
12
12
7f
24
24
fe
48
48
48
48
ENDCHAR
STARTCHAR dollar
ENCODING 36
SWIDTH 556 0
DWIDTH 9 0
BBX 7 15 1 -2
BITMAP
10
10
3c
52
96
96
f0
7c
1e
d2
d2
94
78
10
10
ENDCHAR
STARTCHAR percent
ENCODING 37
SWIDTH 833 0
DWIDTH 14 0
BBX 12 12 1 0
BITMAP
3880
6780
4500
c500
8a00
8ae0
7590
0510
0b10
0a20
1220
11c0
ENDCHAR
STARTCHAR ampersand
ENCODING 38
SWIDTH 815 0
DWIDTH 13 0
BBX 12 12 0 0
BITMAP
1e00
3300
3100
3300
1a00
1cf0
2c60
6640
c680
c390
e790
7ce0
ENDCHAR
STARTCHAR apostrophe
ENCODING 39
SWIDTH 204 0
DWIDTH 3 0
BBX 2 5 0 7
BITMAP
c0
c0
40
40
80
ENDCHAR
STARTCHAR parenleft
ENCODING 40
SWIDTH 333 0
DWIDTH 6 0
BBX 4 14 1 -2
BITMAP
10
20
40
40
80
80
80
80
80
80
40
40
20
10
ENDCHAR
STARTCHAR parenright
ENCODING 41
SWIDTH 333 0
DWIDTH 6 0
BBX 4 14 0 -2
BITMAP
80
40
20
20
10
10
10
10
10
10
20
20
40
80
ENDCHAR
STARTCHAR asterisk
ENCODING 42
SWIDTH 500 0
DWIDTH 8 0
BBX 7 7 0 5
BITMAP
10
54
d6
38
d6
54
10
ENDCHAR
STARTCHAR plus
ENCODING 43
SWIDTH 606 0
DWIDTH 10 0
BBX 7 9 1 0
BITMAP
10
10
10
10
fe
10
10
10
10
ENDCHAR
STARTCHAR comma
ENCODING 44
SWIDTH 278 0
DWIDTH 4 0
BBX 2 5 1 -3
BITMAP
c0
c0
40
40
80
ENDCHAR
STARTCHAR minus
ENCODING 45
SWIDTH 606 0
DWIDTH 10 0
BBX 8 1 1 4
BITMAP
ff
ENDCHAR
STARTCHAR period
ENCODING 46
SWIDTH 278 0
DWIDTH 4 0
BBX 2 2 1 0
BITMAP
c0
c0
ENDCHAR
STARTCHAR slash
ENCODING 47
SWIDTH 278 0
DWIDTH 5 0
BBX 5 12 0 0
BITMAP
08
08
10
10
10
20
20
40
40
40
80
80
ENDCHAR
STARTCHAR zero
ENCODING 48
SWIDTH 556 0
DWIDTH 9 0
BBX 8 12 0 0
BITMAP
3c
66
42
c3
c3
c3
c3
c3
c3
42
66
3c
ENDCHAR
STARTCHAR one
ENCODING 49
SWIDTH 556 0
DWIDTH 9 0
BBX 6 12 1 0
BITMAP
10
f0
30
30
30
30
30
30
30
30
30
fc
ENDCHAR
STARTCHAR two
ENCODING 50
SWIDTH 556 0
DWIDTH 9 0
BBX 7 12 1 0
BITMAP
38
44
86
c6
c6
0c
08
10
22
42
fe
fe
ENDCHAR
STARTCHAR three
ENCODING 51
SWIDTH 556 0
DWIDTH 9 0
BBX 7 12 1 0
BITMAP
78
8c
c6
c6
0c
38
0c
06
c6
c6
8c
78
ENDCHAR
STARTCHAR four
ENCODING 52
SWIDTH 556 0
DWIDTH 9 0
BBX 8 12 0 0
BITMAP
04
0c
1c
2c
2c
4c
4c
8c
ff
0c
0c
3f
ENDCHAR
STARTCHAR five
ENCODING 53
SWIDTH 556 0
DWIDTH 9 0
BBX 7 12 1 0
BITMAP
7e
78
40
40
78
cc
86
06
c6
c6
8c
78
ENDCHAR
STARTCHAR six
ENCODING 54
SWIDTH 556 0
DWIDTH 9 0
BBX 8 12 0 0
BITMAP
3c
66
46
c0
c0
fc
e6
c3
c3
c3
66
3c
ENDCHAR
STARTCHAR seven
ENCODING 55
SWIDTH 556 0
DWIDTH 9 0
BBX 7 12 1 0
BITMAP
fe
fe
84
84
08
08
10
10
10
30
30
30
ENDCHAR
STARTCHAR eight
ENCODING 56
SWIDTH 556 0
DWIDTH 9 0
BBX 8 12 0 0
BITMAP
3c
66
42
62
76
3c
6e
c7
c3
c3
66
3c
ENDCHAR
STARTCHAR nine
ENCODING 57
SWIDTH 556 0
DWIDTH 9 0
BBX 8 12 0 0
BITMAP
3c
66
c3
c3
c3
67
3f
03
03
62
66
38
ENDCHAR
STARTCHAR colon
ENCODING 58
SWIDTH 278 0
DWIDTH 4 0
BBX 2 8 1 0
BITMAP
c0
c0
00
00
00
00
c0
c0
ENDCHAR
STARTCHAR semicolon
ENCODING 59
SWIDTH 278 0
DWIDTH 4 0
BBX 2 11 1 -3
BITMAP
c0
c0
00
00
00
00
c0
c0
40
40
80
ENDCHAR
STARTCHAR less
ENCODING 60
SWIDTH 606 0
DWIDTH 10 0
BBX 8 8 1 0
BITMAP
03
0c
30
c0
c0
30
0c
03
ENDCHAR
STARTCHAR equal
ENCODING 61
SWIDTH 606 0
DWIDTH 10 0
BBX 8 4 1 2
BITMAP
ff
00
00
ff
ENDCHAR
STARTCHAR greater
ENCODING 62
SWIDTH 606 0
DWIDTH 10 0
BBX 8 8 0 0
BITMAP
c0
30
0c
03
03
0c
30
c0
ENDCHAR
STARTCHAR question
ENCODING 63
SWIDTH 444 0
DWIDTH 7 0
BBX 7 12 0 0
BITMAP
38
4c
e6
46
06
0c
18
10
10
00
30
30
ENDCHAR
STARTCHAR at
ENCODING 64
SWIDTH 737 0
DWIDTH 12 0
BBX 13 13 -1 -1
BITMAP
0780
1860
2010
46d0
4d90
9890
9990
9120
9b20
4cc8
4010
3060
0f80
ENDCHAR
STARTCHAR A
ENCODING 65
SWIDTH 722 0
DWIDTH 12 0
BBX 11 12 0 0
BITMAP
0400
0400
0e00
0e00
1600
1300
1300
3f80
2180
4180
40c0
f3e0
ENDCHAR
STARTCHAR B
ENCODING 66
SWIDTH 722 0
DWIDTH 12 0
BBX 11 12 0 0
BITMAP
ff80
31c0
30c0
30c0
3180
3fc0
30e0
3060
3060
3060
30c0
ff80
ENDCHAR
STARTCHAR C
ENCODING 67
SWIDTH 722 0
DWIDTH 12 0
BBX 10 12 1 0
BITMAP
1f40
70c0
6040
e040
c040
c000
c000
c000
e040
6040
7080
1f00
ENDCHAR
STARTCHAR D
ENCODING 68
SWIDTH 778 0
DWIDTH 13 0
BBX 12 12 0 0
BITMAP
ff00
31c0
3060
3060
3030
3030
3030
3030
3060
3060
31c0
ff00
ENDCHAR
STARTCHAR E
ENCODING 69
SWIDTH 722 0
DWIDTH 12 0
BBX 10 12 0 0
BITMAP
ffc0
30c0
3040
3240
3200
3e00
3600
3200
3240
3040
30c0
ffc0
ENDCHAR
STARTCHAR F
ENCODING 70
SWIDTH 667 0
DWIDTH 11 0
BBX 10 12 0 0
BITMAP
ffc0
30c0
3040
3240
3200
3e00
3600
3200
3200
3000
3000
fc00
ENDCHAR
STARTCHAR G
ENCODING 71
SWIDTH 778 0
DWIDTH 13 0
BBX 11 12 1 0
BITMAP
1f40
70c0
6040
e040
c040
c000
c3e0
c0c0
e0c0
60c0
71c0
1e40
ENDCHAR
STARTCHAR H
ENCODING 72
SWIDTH 833 0
DWIDTH 14 0
BBX 13 12 0 0
BITMAP
fdf8
3060
3060
3060
3060
3fe0
3060
3060
3060
3060
3060
fdf8
ENDCHAR
STARTCHAR I
ENCODING 73
SWIDTH 407 0
DWIDTH 7 0
BBX 6 12 0 0
BITMAP
fc
30
30
30
30
30
30
30
30
30
30
fc
ENDCHAR
STARTCHAR J
ENCODING 74
SWIDTH 556 0
DWIDTH 9 0
BBX 9 12 0 0
BITMAP
1f80
0600
0600
0600
0600
0600
0600
4600
e600
c600
8400
7800
ENDCHAR
STARTCHAR K
ENCODING 75
SWIDTH 778 0
DWIDTH 13 0
BBX 12 12 0 0
BITMAP
fdf0
30c0
3080
3100
3200
3600
3b00
3380
3180
30c0
30e0
fdf0
ENDCHAR
STARTCHAR L
ENCODING 76
SWIDTH 667 0
DWIDTH 11 0
BBX 10 12 0 0
BITMAP
fc00
3000
3000
3000
3000
3000
3000
3040
3040
3040
30c0
ffc0
ENDCHAR
STARTCHAR M
ENCODING 77
SWIDTH 944 0
DWIDTH 16 0
BBX 15 12 0 0
BITMAP
f83e
3838
3838
2c58
2c58
2e58
2698
2698
2398
2318
2318
f93e
ENDCHAR
STARTCHAR N
ENCODING 78
SWIDTH 815 0
DWIDTH 13 0
BBX 13 12 0 0
BITMAP
f0f8
3820
3c20
2c20
2e20
2720
23a0
21a0
20e0
20e0
2060
f820
ENDCHAR
STARTCHAR O
ENCODING 79
SWIDTH 778 0
DWIDTH 13 0
BBX 11 12 1 0
BITMAP
0e00
3180
60c0
60c0
c060
c060
c060
c060
60c0
60c0
3180
0e00
ENDCHAR
STARTCHAR P
ENCODING 80
SWIDTH 667 0
DWIDTH 11 0
BBX 11 12 0 0
BITMAP
ff80
30c0
3060
3060
3060
30c0
3f80
3000
3000
3000
3000
fc00
ENDCHAR
STARTCHAR Q
ENCODING 81
SWIDTH 778 0
DWIDTH 13 0
BBX 11 15 1 -3
BITMAP
0e00
3180
60c0
60c0
c060
c060
c060
cc60
5240
73c0
3380
0f00
0340
0340
0180
ENDCHAR
STARTCHAR R
ENCODING 82
SWIDTH 722 0
DWIDTH 12 0
BBX 12 12 0 0
BITMAP
ff00
30c0
3060
3060
30c0
3f00
3380
30c0
30c0
30d0
30d0
fc60
ENDCHAR
STARTCHAR S
ENCODING 83
SWIDTH 630 0
DWIDTH 10 0
BBX 8 12 1 0
BITMAP
3d
63
c1
c1
e0
7c
3e
87
83
83
c6
bc
ENDCHAR
STARTCHAR T
ENCODING 84
SWIDTH 667 0
DWIDTH 11 0
BBX 10 12 0 0
BITMAP
ffc0
ccc0
8c40
8c40
8c40
0c00
0c00
0c00
0c00
0c00
0c00
3f00
ENDCHAR
STARTCHAR U
ENCODING 85
SWIDTH 815 0
DWIDTH 13 0
BBX 13 12 0 0
BITMAP
fcf8
3020
3020
3020
3020
3020
3020
3020
3020
3020
1840
0f80
ENDCHAR
STARTCHAR V
ENCODING 86
SWIDTH 722 0
DWIDTH 12 0
BBX 11 12 0 0
BITMAP
f8e0
7040
3040
3080
1880
1900
1900
0d00
0e00
0e00
0400
0400
ENDCHAR
STARTCHAR W
ENCODING 87
SWIDTH 981 0
DWIDTH 16 0
BBX 15 12 0 0
BITMAP
f7ce
6304
6304
3188
3188
39c8
1ad0
1ad0
0a50
0c60
0420
0420
ENDCHAR
STARTCHAR X
ENCODING 88
SWIDTH 704 0
DWIDTH 11 0
BBX 11 12 0 0
BITMAP
f1e0
60c0
3080
1900
1e00
0c00
0600
0f00
1300
2180
60c0
f1e0
ENDCHAR
STARTCHAR Y
ENCODING 89
SWIDTH 704 0
DWIDTH 12 0
BBX 12 12 0 0
BITMAP
fcf0
3040
1880
1880
0d00
0d00
0600
0600
0600
0600
0600
1f80
ENDCHAR
STARTCHAR Z
ENCODING 90
SWIDTH 611 0
DWIDTH 10 0
BBX 9 12 0 0
BITMAP
7f80
6180
4300
4300
0600
0c00
0c00
1880
3080
3080
6180
ff80
ENDCHAR
STARTCHAR bracketleft
ENCODING 91
SWIDTH 333 0
DWIDTH 6 0
BBX 3 14 1 -2
BITMAP
e0
80
80
80
80
80
80
80
80
80
80
80
80
e0
ENDCHAR
STARTCHAR backslash
ENCODING 92
SWIDTH 606 0
DWIDTH 10 0
BBX 6 12 2 0
BITMAP
80
80
40
40
20
20
10
10
08
08
04
04
ENDCHAR
STARTCHAR bracketright
ENCODING 93
SWIDTH 333 0
DWIDTH 6 0
BBX 3 14 1 -2
BITMAP
e0
20
20
20
20
20
20
20
20
20
20
20
20
e0
ENDCHAR
STARTCHAR asciicircum
ENCODING 94
SWIDTH 606 0
DWIDTH 10 0
BBX 8 7 1 5
BITMAP
18
18
3c
24
66
42
c3
ENDCHAR
STARTCHAR underscore
ENCODING 95
SWIDTH 500 0
DWIDTH 8 0
BBX 8 1 0 -2
BITMAP
ff
ENDCHAR
STARTCHAR grave
ENCODING 96
SWIDTH 333 0
DWIDTH 5 0
BBX 3 3 0 9
BITMAP
80
40
20
ENDCHAR
STARTCHAR a
ENCODING 97
SWIDTH 556 0
DWIDTH 9 0
BBX 7 8 1 0
BITMAP
78
cc
cc
1c
6c
cc
cc
76
ENDCHAR
STARTCHAR b
ENCODING 98
SWIDTH 556 0
DWIDTH 9 0
BBX 8 12 0 0
BITMAP
e0
60
60
60
7c
66
63
63
63
63
66
5c
ENDCHAR
STARTCHAR c
ENCODING 99
SWIDTH 444 0
DWIDTH 7 0
BBX 6 8 0 0
BITMAP
38
6c
cc
c0
c0
c0
6c
38
ENDCHAR
STARTCHAR d
ENCODING 100
SWIDTH 574 0
DWIDTH 10 0
BBX 8 12 1 0
BITMAP
0e
06
06
06
3e
66
c6
c6
c6
c6
66
3b
ENDCHAR
STARTCHAR e
ENCODING 101
SWIDTH 500 0
DWIDTH 8 0
BBX 7 8 0 0
BITMAP
38
44
c6
fe
c0
c0
66
3c
ENDCHAR
STARTCHAR f
ENCODING 102
SWIDTH 333 0
DWIDTH 6 0
BBX 6 12 0 0
BITMAP
38
6c
60
60
f8
60
60
60
60
60
60
f8
ENDCHAR
STARTCHAR g
ENCODING 103
SWIDTH 537 0
DWIDTH 9 0
BBX 9 11 0 -3
BITMAP
3d80
6680
6600
6600
6600
3c00
4000
7e00
c300
c300
7e00
ENDCHAR
STARTCHAR h
ENCODING 104
SWIDTH 611 0
DWIDTH 10 0
BBX 9 12 0 0
BITMAP
e000
6000
6000
6000
6e00
7700
6300
6300
6300
6300
6300
f780
ENDCHAR
STARTCHAR i
ENCODING 105
SWIDTH 315 0
DWIDTH 5 0
BBX 4 12 0 0
BITMAP
60
60
00
00
e0
60
60
60
60
60
60
f0
ENDCHAR
STARTCHAR j
ENCODING 106
SWIDTH 296 0
DWIDTH 5 0
BBX 4 15 -1 -3
BITMAP
30
30
00
00
70
30
30
30
30
30
30
30
30
b0
e0
ENDCHAR
STARTCHAR k
ENCODING 107
SWIDTH 593 0
DWIDTH 10 0
BBX 9 12 0 0
BITMAP
e000
6000
6000
6000
6f80
6600
6c00
7800
7c00
6600
6300
f780
ENDCHAR
STARTCHAR l
ENCODING 108
SWIDTH 315 0
DWIDTH 5 0
BBX 4 12 0 0
BITMAP
e0
60
60
60
60
60
60
60
60
60
60
f0
ENDCHAR
STARTCHAR m
ENCODING 109
SWIDTH 889 0
DWIDTH 15 0
BBX 14 8 0 0
BITMAP
ee70
7398
6318
6318
6318
6318
6318
f7bc
ENDCHAR
STARTCHAR n
ENCODING 110
SWIDTH 611 0
DWIDTH 10 0
BBX 9 8 0 0
BITMAP
ee00
7300
6300
6300
6300
6300
6300
f780
ENDCHAR
STARTCHAR o
ENCODING 111
SWIDTH 500 0
DWIDTH 8 0
BBX 7 8 0 0
BITMAP
38
6c
c6
c6
c6
c6
6c
38
ENDCHAR
STARTCHAR p
ENCODING 112
SWIDTH 574 0
DWIDTH 9 0
BBX 8 11 0 -3
BITMAP
dc
66
63
63
63
63
66
7c
60
60
f0
ENDCHAR
STARTCHAR q
ENCODING 113
SWIDTH 556 0
DWIDTH 9 0
BBX 8 11 0 -3
BITMAP
39
66
c6
c6
c6
c6
66
3e
06
06
0f
ENDCHAR
STARTCHAR r
ENCODING 114
SWIDTH 444 0
DWIDTH 7 0
BBX 7 8 0 0
BITMAP
ec
76
66
60
60
60
60
f0
ENDCHAR
STARTCHAR s
ENCODING 115
SWIDTH 463 0
DWIDTH 8 0
BBX 6 8 0 0
BITMAP
74
cc
c4
70
38
8c
cc
b8
ENDCHAR
STARTCHAR t
ENCODING 116
SWIDTH 389 0
DWIDTH 7 0
BBX 6 11 0 0
BITMAP
20
20
60
f8
60
60
60
60
64
64
38
ENDCHAR
STARTCHAR u
ENCODING 117
SWIDTH 611 0
DWIDTH 10 0
BBX 9 8 0 0
BITMAP
e700
6300
6300
6300
6300
6300
6300
3d80
ENDCHAR
STARTCHAR v
ENCODING 118
SWIDTH 537 0
DWIDTH 9 0
BBX 9 8 0 0
BITMAP
f780
6300
3200
3600
1c00
1c00
0800
0800
ENDCHAR
STARTCHAR w
ENCODING 119
SWIDTH 778 0
DWIDTH 13 0
BBX 13 8 0 0
BITMAP
ef78
6630
3320
3360
1dc0
1dc0
0880
0880
ENDCHAR
STARTCHAR x
ENCODING 120
SWIDTH 537 0
DWIDTH 9 0
BBX 8 8 0 0
BITMAP
f7
62
34
38
1c
2c
46
ef
ENDCHAR
STARTCHAR y
ENCODING 121
SWIDTH 537 0
DWIDTH 9 0
BBX 8 11 0 -3
BITMAP
f7
62
36
34
1c
1c
08
08
18
d0
e0
ENDCHAR
STARTCHAR z
ENCODING 122
SWIDTH 481 0
DWIDTH 8 0
BBX 6 8 1 0
BITMAP
fc
8c
98
30
30
64
c4
fc
ENDCHAR
STARTCHAR braceleft
ENCODING 123
SWIDTH 333 0
DWIDTH 6 0
BBX 3 14 1 -2
BITMAP
20
40
40
40
40
40
80
40
40
40
40
40
40
20
ENDCHAR
STARTCHAR bar
ENCODING 124
SWIDTH 606 0
DWIDTH 10 0
BBX 1 12 4 0
BITMAP
80
80
80
80
80
80
80
80
80
80
80
80
ENDCHAR
STARTCHAR braceright
ENCODING 125
SWIDTH 333 0
DWIDTH 6 0
BBX 3 14 1 -2
BITMAP
80
40
40
40
40
40
20
40
40
40
40
40
40
80
ENDCHAR
STARTCHAR asciitilde
ENCODING 126
SWIDTH 606 0
DWIDTH 10 0
BBX 8 2 1 3
BITMAP
73
ce
ENDCHAR
STARTCHAR nobreakspace
ENCODING 160
SWIDTH 278 0
DWIDTH 4 0
BBX 1 1 1 0
BITMAP
00
ENDCHAR
STARTCHAR Aogonek
ENCODING 161
SWIDTH 722 0
DWIDTH 12 0
BBX 11 15 0 -3
BITMAP
0400
0400
0e00
0e00
1600
1300
1300
3f80
2180
4180
40c0
f3e0
0400
0800
0e00
ENDCHAR
STARTCHAR breve
ENCODING 162
SWIDTH 333 0
DWIDTH 5 0
BBX 4 3 0 9
BITMAP
90
90
60
ENDCHAR
STARTCHAR Lstroke
ENCODING 163
SWIDTH 667 0
DWIDTH 11 0
BBX 10 12 0 0
BITMAP
fc00
3000
3000
3400
3800
3000
7000
b040
3040
3040
30c0
ffc0
ENDCHAR
STARTCHAR currency
ENCODING 164
SWIDTH 606 0
DWIDTH 9 0
BBX 7 8 1 2
BITMAP
ba
6c
c6
82
82
c6
6c
ba
ENDCHAR
STARTCHAR Lcaron
ENCODING 165
SWIDTH 667 0
DWIDTH 11 0
BBX 10 13 0 0
BITMAP
0180
fd80
3080
3080
3100
3000
3000
3000
3040
3040
3040
30c0
ffc0
ENDCHAR
STARTCHAR Sacute
ENCODING 166
SWIDTH 630 0
DWIDTH 10 0
BBX 8 16 1 0
BITMAP
02
06
08
00
3d
63
c1
c1
e0
7c
3e
87
83
83
c6
bc
ENDCHAR
STARTCHAR section
ENCODING 167
SWIDTH 500 0
DWIDTH 8 0
BBX 6 15 1 -3
BITMAP
38
48
40
60
30
58
8c
84
c4
68
30
18
08
48
70
ENDCHAR
STARTCHAR diaeresis
ENCODING 168
SWIDTH 333 0
DWIDTH 5 0
BBX 5 2 0 9
BITMAP
d8
d8
ENDCHAR
STARTCHAR Scaron
ENCODING 169
SWIDTH 630 0
DWIDTH 10 0
BBX 8 16 1 0
BITMAP
22
14
08
00
3d
63
c1
c1
e0
7c
3e
87
83
83
c6
bc
ENDCHAR
STARTCHAR Scedilla
ENCODING 170
SWIDTH 630 0
DWIDTH 10 0
BBX 8 16 1 -4
BITMAP
3d
63
c1
c1
e0
7c
3e
87
83
83
c6
bc
10
10
08
30
ENDCHAR
STARTCHAR Tcaron
ENCODING 171
SWIDTH 667 0
DWIDTH 11 0
BBX 10 16 0 0
BITMAP
2200
1400
0800
0000
ffc0
ccc0
8c40
8c40
8c40
0c00
0c00
0c00
0c00
0c00
0c00
3f00
ENDCHAR
STARTCHAR Zacute
ENCODING 172
SWIDTH 611 0
DWIDTH 10 0
BBX 9 16 0 0
BITMAP
0200
0600
0800
0000
7f80
6180
4300
4300
0600
0c00
0c00
1880
3080
3080
6180
ff80
ENDCHAR
STARTCHAR hyphen
ENCODING 173
SWIDTH 333 0
DWIDTH 5 0
BBX 4 1 0 3
BITMAP
f0
ENDCHAR
STARTCHAR Zcaron
ENCODING 174
SWIDTH 611 0
DWIDTH 10 0
BBX 9 16 0 0
BITMAP
2200
1400
0800
0000
7f80
6180
4300
4300
0600
0c00
0c00
1880
3080
3080
6180
ff80
ENDCHAR
STARTCHAR Zabovedot
ENCODING 175
SWIDTH 611 0
DWIDTH 10 0
BBX 9 15 0 0
BITMAP
0c00
0c00
0000
7f80
6180
4300
4300
0600
0c00
0c00
1880
3080
3080
6180
ff80
ENDCHAR
STARTCHAR degree
ENCODING 176
SWIDTH 400 0
DWIDTH 7 0
BBX 5 5 1 7
BITMAP
70
88
88
88
70
ENDCHAR
STARTCHAR aogonek
ENCODING 177
SWIDTH 556 0
DWIDTH 9 0
BBX 7 11 1 -3
BITMAP
78
cc
cc
1c
6c
cc
cc
76
10
20
38
ENDCHAR
STARTCHAR ogonek
ENCODING 178
SWIDTH 333 0
DWIDTH 5 0
BBX 3 3 1 -3
BITMAP
40
80
e0
ENDCHAR
STARTCHAR lstroke
ENCODING 179
SWIDTH 315 0
DWIDTH 5 0
BBX 5 12 0 0
BITMAP
e0
20
20
28
30
60
a0
20
20
20
20
f8
ENDCHAR
STARTCHAR acute
ENCODING 180
SWIDTH 333 0
DWIDTH 5 0
BBX 3 3 0 9
BITMAP
20
60
80
ENDCHAR
STARTCHAR lcaron
ENCODING 181
SWIDTH 420 0
DWIDTH 7 0
BBX 6 13 0 0
BITMAP
0c
ec
64
64
68
60
60
60
60
60
60
60
f0
ENDCHAR
STARTCHAR sacute
ENCODING 182
SWIDTH 463 0
DWIDTH 8 0
BBX 6 12 0 0
BITMAP
08
18
20
00
74
cc
c4
70
38
8c
cc
b8
ENDCHAR
STARTCHAR caron
ENCODING 183
SWIDTH 333 0
DWIDTH 5 0
BBX 5 3 0 9
BITMAP
88
50
20
ENDCHAR
STARTCHAR cedilla
ENCODING 184
SWIDTH 333 0
DWIDTH 5 0
BBX 3 4 1 -3
BITMAP
40
40
20
c0
ENDCHAR
STARTCHAR scaron
ENCODING 185
SWIDTH 463 0
DWIDTH 8 0
BBX 6 12 0 0
BITMAP
88
50
20
00
74
cc
c4
70
38
8c
cc
b8
ENDCHAR
STARTCHAR scedilla
ENCODING 186
SWIDTH 463 0
DWIDTH 8 0
BBX 6 12 0 -4
BITMAP
74
cc
c4
70
38
8c
cc
b8
20
20
10
60
ENDCHAR
STARTCHAR tcaron
ENCODING 187
SWIDTH 389 0
DWIDTH 7 0
BBX 6 14 0 0
BITMAP
0c
0c
04
24
28
60
f8
60
60
60
60
64
64
38
ENDCHAR
STARTCHAR zacute
ENCODING 188
SWIDTH 481 0
DWIDTH 8 0
BBX 6 12 1 0
BITMAP
08
18
20
00
fc
8c
98
30
30
64
c4
fc
ENDCHAR
STARTCHAR doubleacute
ENCODING 189
SWIDTH 333 0
DWIDTH 5 0
BBX 4 3 1 9
BITMAP
50
50
a0
ENDCHAR
STARTCHAR zcaron
ENCODING 190
SWIDTH 481 0
DWIDTH 8 0
BBX 6 12 1 0
BITMAP
88
50
20
00
fc
8c
98
30
30
64
c4
fc
ENDCHAR
STARTCHAR zabovedot
ENCODING 191
SWIDTH 481 0
DWIDTH 8 0
BBX 6 11 1 0
BITMAP
30
30
00
fc
8c
98
30
30
64
c4
fc
ENDCHAR
STARTCHAR Racute
ENCODING 192
SWIDTH 722 0
DWIDTH 12 0
BBX 12 16 0 0
BITMAP
0200
0600
0800
0000
ff00
30c0
3060
3060
30c0
3f00
3380
30c0
30c0
30d0
30d0
fc60
ENDCHAR
STARTCHAR Aacute
ENCODING 193
SWIDTH 722 0
DWIDTH 12 0
BBX 11 16 0 0
BITMAP
0300
0600
0800
0000
0400
0400
0e00
0e00
1600
1300
1300
3f80
2180
4180
40c0
f3e0
ENDCHAR
STARTCHAR Acircumflex
ENCODING 194
SWIDTH 722 0
DWIDTH 12 0
BBX 11 16 0 0
BITMAP
0400
0e00
1100
0000
0400
0400
0e00
0e00
1600
1300
1300
3f80
2180
4180
40c0
f3e0
ENDCHAR
STARTCHAR Abreve
ENCODING 195
SWIDTH 722 0
DWIDTH 12 0
BBX 11 16 0 0
BITMAP
0900
0900
0600
0000
0400
0400
0e00
0e00
1600
1300
1300
3f80
2180
4180
40c0
f3e0
ENDCHAR
STARTCHAR Adiaeresis
ENCODING 196
SWIDTH 722 0
DWIDTH 12 0
BBX 11 15 0 0
BITMAP
1200
1200
0000
0400
0400
0e00
0e00
1600
1300
1300
3f80
2180
4180
40c0
f3e0
ENDCHAR
STARTCHAR Lacute
ENCODING 197
SWIDTH 667 0
DWIDTH 11 0
BBX 10 16 0 0
BITMAP
0800
1800
2000
0000
fc00
3000
3000
3000
3000
3000
3000
3040
3040
3040
30c0
ffc0
ENDCHAR
STARTCHAR Cacute
ENCODING 198
SWIDTH 722 0
DWIDTH 12 0
BBX 10 16 1 0
BITMAP
0100
0300
0400
0000
1f40
70c0
6040
e040
c040
c000
c000
c000
e040
6040
7080
1f00
ENDCHAR
STARTCHAR Ccedilla
ENCODING 199
SWIDTH 722 0
DWIDTH 12 0
BBX 10 15 1 -3
BITMAP
1f40
70c0
6040
e040
c040
c000
c000
c000
e040
6040
7080
1f00
0800
0400
1800
ENDCHAR
STARTCHAR Ccaron
ENCODING 200
SWIDTH 722 0
DWIDTH 12 0
BBX 10 16 1 0
BITMAP
1100
0a00
0400
0000
1f40
70c0
6040
e040
c040
c000
c000
c000
e040
6040
7080
1f00
ENDCHAR
STARTCHAR Eacute
ENCODING 201
SWIDTH 722 0
DWIDTH 12 0
BBX 10 16 0 0
BITMAP
0300
0600
0800
0000
ffc0
30c0
3040
3040
3200
3e00
3600
3200
3040
3040
30c0
ffc0
ENDCHAR
STARTCHAR Eogonek
ENCODING 202
SWIDTH 722 0
DWIDTH 12 0
BBX 10 15 0 -3
BITMAP
ffc0
30c0
3040
3240
3200
3e00
3600
3200
3240
3040
30c0
ffc0
0800
1000
1c00
ENDCHAR
STARTCHAR Ediaeresis
ENCODING 203
SWIDTH 722 0
DWIDTH 12 0
BBX 10 15 0 0
BITMAP
1100
1100
0000
ffc0
30c0
3040
3040
3200
3e00
3600
3200
3040
3040
30c0
ffc0
ENDCHAR
STARTCHAR Ecaron
ENCODING 204
SWIDTH 722 0
DWIDTH 12 0
BBX 10 16 0 0
BITMAP
2200
1400
0800
0000
ffc0
30c0
3040
3240
3200
3e00
3600
3200
3240
3040
30c0
ffc0
ENDCHAR
STARTCHAR Iacute
ENCODING 205
SWIDTH 407 0
DWIDTH 7 0
BBX 6 16 0 0
BITMAP
0c
18
20
00
fc
30
30
30
30
30
30
30
30
30
30
fc
ENDCHAR
STARTCHAR Icircumflex
ENCODING 206
SWIDTH 407 0
DWIDTH 7 0
BBX 6 16 0 0
BITMAP
20
70
88
00
fc
30
30
30
30
30
30
30
30
30
30
fc
ENDCHAR
STARTCHAR Dcaron
ENCODING 207
SWIDTH 778 0
DWIDTH 13 0
BBX 12 16 0 0
BITMAP
2200
1400
0800
0000
ff00
31c0
3060
3060
3030
3030
3030
3030
3060
3060
31c0
ff00
ENDCHAR
STARTCHAR Dstroke
ENCODING 208
SWIDTH 778 0
DWIDTH 13 0
BBX 12 12 0 0
BITMAP
ff00
31c0
3060
3060
3030
7c30
3030
3030
3060
3060
31c0
ff00
ENDCHAR
STARTCHAR Nacute
ENCODING 209
SWIDTH 815 0
DWIDTH 13 0
BBX 13 16 0 0
BITMAP
0080
0180
0200
0000
f0f8
3820
3c20
2c20
2e20
2720
23a0
21a0
20e0
20e0
2060
f820
ENDCHAR
STARTCHAR Ncaron
ENCODING 210
SWIDTH 815 0
DWIDTH 13 0
BBX 13 16 0 0
BITMAP
0880
0500
0200
0000
f0f8
3820
3c20
2c20
2e20
2720
23a0
21a0
20e0
20e0
2060
f820
ENDCHAR
STARTCHAR Oacute
ENCODING 211
SWIDTH 778 0
DWIDTH 13 0
BBX 11 16 1 0
BITMAP
0180
0300
0400
0000
0e00
3180
60c0
60c0
c060
c060
c060
c060
60c0
60c0
3180
0e00
ENDCHAR
STARTCHAR Ocircumflex
ENCODING 212
SWIDTH 778 0
DWIDTH 13 0
BBX 11 16 1 0
BITMAP
0400
0e00
1100
0000
0e00
3180
60c0
60c0
c060
c060
c060
c060
60c0
60c0
3180
0e00
ENDCHAR
STARTCHAR Odoubleacute
ENCODING 213
SWIDTH 778 0
DWIDTH 13 0
BBX 11 16 1 0
BITMAP
0500
0500
0a00
0000
0e00
3180
60c0
60c0
c060
c060
c060
c060
60c0
60c0
3180
0e00
ENDCHAR
STARTCHAR Odiaeresis
ENCODING 214
SWIDTH 778 0
DWIDTH 13 0
BBX 11 15 1 0
BITMAP
1100
1100
0000
0e00
3180
60c0
60c0
c060
c060
c060
c060
60c0
60c0
3180
0e00
ENDCHAR
STARTCHAR multiply
ENCODING 215
SWIDTH 606 0
DWIDTH 10 0
BBX 8 8 1 0
BITMAP
81
42
24
18
18
24
42
81
ENDCHAR
STARTCHAR Rcaron
ENCODING 216
SWIDTH 722 0
DWIDTH 12 0
BBX 12 16 0 0
BITMAP
2200
1400
0800
0000
ff00
30c0
3060
3060
30c0
3f00
3380
30c0
30c0
30d0
30d0
fc60
ENDCHAR
STARTCHAR Uring
ENCODING 217
SWIDTH 815 0
DWIDTH 13 0
BBX 13 17 0 0
BITMAP
0300
0480
0480
0300
0000
fcf8
3020
3020
3020
3020
3020
3020
3020
3020
3020
1840
0f80
ENDCHAR
STARTCHAR Uacute
ENCODING 218
SWIDTH 815 0
DWIDTH 13 0
BBX 13 16 0 0
BITMAP
00c0
0180
0200
0000
fcf8
3020
3020
3020
3020
3020
3020
3020
3020
3020
1840
0f80
ENDCHAR
STARTCHAR Udoubleacute
ENCODING 219
SWIDTH 815 0
DWIDTH 13 0
BBX 13 16 0 0
BITMAP
0280
0280
0500
0000
fcf8
3020
3020
3020
3020
3020
3020
3020
3020
3020
1840
0f80
ENDCHAR
STARTCHAR Udiaeresis
ENCODING 220
SWIDTH 815 0
DWIDTH 13 0
BBX 13 15 0 0
BITMAP
0880
0880
0000
fcf8
3020
3020
3020
3020
3020
3020
3020
3020
3020
1840
0f80
ENDCHAR
STARTCHAR Yacute
ENCODING 221
SWIDTH 704 0
DWIDTH 12 0
BBX 12 16 0 0
BITMAP
0180
0300
0400
0000
fcf0
3040
1880
1880
0d00
0d00
0600
0600
0600
0600
0600
1f80
ENDCHAR
STARTCHAR Tcedilla
ENCODING 222
SWIDTH 667 0
DWIDTH 11 0
BBX 10 16 0 -4
BITMAP
ffc0
ccc0
8c40
8c40
8c40
0c00
0c00
0c00
0c00
0c00
0c00
3f00
0800
0800
0400
1800
ENDCHAR
STARTCHAR ssharp
ENCODING 223
SWIDTH 574 0
DWIDTH 10 0
BBX 8 12 1 0
BITMAP
3c
66
63
63
66
7c
66
63
63
63
76
ec
ENDCHAR
STARTCHAR racute
ENCODING 224
SWIDTH 444 0
DWIDTH 7 0
BBX 7 12 0 0
BITMAP
04
0c
10
00
ec
76
66
60
60
60
60
f0
ENDCHAR
STARTCHAR aacute
ENCODING 225
SWIDTH 556 0
DWIDTH 9 0
BBX 7 12 1 0
BITMAP
04
0c
10
00
78
cc
cc
1c
6c
cc
cc
76
ENDCHAR
STARTCHAR acircumflex
ENCODING 226
SWIDTH 556 0
DWIDTH 9 0
BBX 7 12 1 0
BITMAP
10
38
44
00
78
cc
cc
1c
6c
cc
cc
76
ENDCHAR
STARTCHAR abreve
ENCODING 227
SWIDTH 556 0
DWIDTH 9 0
BBX 7 12 1 0
BITMAP
48
48
30
00
78
cc
cc
1c
6c
cc
cc
76
ENDCHAR
STARTCHAR adiaeresis
ENCODING 228
SWIDTH 556 0
DWIDTH 9 0
BBX 7 11 1 0
BITMAP
48
48
00
78
cc
cc
1c
6c
cc
cc
76
ENDCHAR
STARTCHAR lacute
ENCODING 229
SWIDTH 315 0
DWIDTH 5 0
BBX 4 16 0 0
BITMAP
10
30
40
00
e0
60
60
60
60
60
60
60
60
60
60
f0
ENDCHAR
STARTCHAR cacute
ENCODING 230
SWIDTH 444 0
DWIDTH 7 0
BBX 6 12 0 0
BITMAP
04
0c
10
00
38
6c
cc
c0
c0
c0
6c
38
ENDCHAR
STARTCHAR ccedilla
ENCODING 231
SWIDTH 444 0
DWIDTH 7 0
BBX 6 11 0 -3
BITMAP
38
6c
cc
c0
c0
c4
6c
38
20
10
60
ENDCHAR
STARTCHAR ccaron
ENCODING 232
SWIDTH 444 0
DWIDTH 7 0
BBX 6 12 0 0
BITMAP
44
28
10
00
38
6c
cc
c0
c0
c0
6c
38
ENDCHAR
STARTCHAR eacute
ENCODING 233
SWIDTH 500 0
DWIDTH 8 0
BBX 7 12 0 0
BITMAP
04
0c
10
00
38
44
c6
fe
c0
c0
66
3c
ENDCHAR
STARTCHAR eogonek
ENCODING 234
SWIDTH 500 0
DWIDTH 8 0
BBX 7 11 0 -3
BITMAP
38
44
c6
fe
c0
c0
66
3c
10
20
38
ENDCHAR
STARTCHAR ediaeresis
ENCODING 235
SWIDTH 500 0
DWIDTH 8 0
BBX 7 11 0 0
BITMAP
24
24
00
38
44
c6
fe
c0
c0
66
3c
ENDCHAR
STARTCHAR ecaron
ENCODING 236
SWIDTH 500 0
DWIDTH 8 0
BBX 7 12 0 0
BITMAP
44
28
10
00
38
44
c6
fe
c0
c0
66
3c
ENDCHAR
STARTCHAR iacute
ENCODING 237
SWIDTH 315 0
DWIDTH 5 0
BBX 4 12 0 0
BITMAP
10
30
40
00
e0
60
60
60
60
60
60
f0
ENDCHAR
STARTCHAR icircumflex
ENCODING 238
SWIDTH 315 0
DWIDTH 5 0
BBX 5 12 -1 0
BITMAP
20
70
88
00
70
30
30
30
30
30
30
78
ENDCHAR
STARTCHAR dcaron
ENCODING 239
SWIDTH 720 0
DWIDTH 12 0
BBX 10 13 1 0
BITMAP
00c0
0ec0
0640
0640
0680
3e00
6600
c600
c600
c600
c600
6600
3b00
ENDCHAR
STARTCHAR dstroke
ENCODING 240
SWIDTH 720 0
DWIDTH 12 0
BBX 10 12 1 0
BITMAP
0e00
0600
3fc0
0600
3e00
6600
c600
c600
c600
c600
6600
3b00
ENDCHAR
STARTCHAR nacute
ENCODING 241
SWIDTH 611 0
DWIDTH 10 0
BBX 9 12 0 0
BITMAP
0400
0c00
1000
0000
ee00
7300
6300
6300
6300
6300
6300
f780
ENDCHAR
STARTCHAR ncaron
ENCODING 242
SWIDTH 611 0
DWIDTH 10 0
BBX 9 12 0 0
BITMAP
4400
2800
1000
0000
ee00
7300
6300
6300
6300
6300
6300
f780
ENDCHAR
STARTCHAR oacute
ENCODING 243
SWIDTH 500 0
DWIDTH 8 0
BBX 7 12 0 0
BITMAP
04
0c
10
00
38
6c
c6
c6
c6
c6
6c
38
ENDCHAR
STARTCHAR ocircumflex
ENCODING 244
SWIDTH 500 0
DWIDTH 8 0
BBX 7 12 0 0
BITMAP
10
38
44
00
38
6c
c6
c6
c6
c6
6c
38
ENDCHAR
STARTCHAR odoubleacute
ENCODING 245
SWIDTH 500 0
DWIDTH 8 0
BBX 7 12 0 0
BITMAP
14
14
28
00
38
6c
c6
c6
c6
c6
6c
38
ENDCHAR
STARTCHAR odiaeresis
ENCODING 246
SWIDTH 500 0
DWIDTH 8 0
BBX 7 11 0 0
BITMAP
48
48
00
38
6c
c6
c6
c6
c6
6c
38
ENDCHAR
STARTCHAR division
ENCODING 247
SWIDTH 606 0
DWIDTH 10 0
BBX 8 7 1 1
BITMAP
18
18
00
ff
00
18
18
ENDCHAR
STARTCHAR rcaron
ENCODING 248
SWIDTH 444 0
DWIDTH 7 0
BBX 7 12 0 0
BITMAP
44
28
10
00
ec
76
66
60
60
60
60
f0
ENDCHAR
STARTCHAR uring
ENCODING 249
SWIDTH 611 0
DWIDTH 10 0
BBX 9 13 0 0
BITMAP
1800
2400
2400
1800
0000
e700
6300
6300
6300
6300
6300
6300
3d80
ENDCHAR
STARTCHAR uacute
ENCODING 250
SWIDTH 611 0
DWIDTH 10 0
BBX 9 12 0 0
BITMAP
0200
0600
0800
0000
e700
6300
6300
6300
6300
6300
6300
3d80
ENDCHAR
STARTCHAR udoubleacute
ENCODING 251
SWIDTH 611 0
DWIDTH 10 0
BBX 9 12 0 0
BITMAP
1400
1400
2800
0000
e700
6300
6300
6300
6300
6300
6300
3d80
ENDCHAR
STARTCHAR udiaeresis
ENCODING 252
SWIDTH 611 0
DWIDTH 10 0
BBX 9 11 0 0
BITMAP
2400
2400
0000
e700
6300
6300
6300
6300
6300
6300
3d80
ENDCHAR
STARTCHAR yacute
ENCODING 253
SWIDTH 537 0
DWIDTH 9 0
BBX 8 15 0 -3
BITMAP
02
06
08
00
f7
62
36
34
1c
18
08
18
10
d0
e0
ENDCHAR
STARTCHAR tcedilla
ENCODING 254
SWIDTH 389 0
DWIDTH 7 0
BBX 6 15 0 -4
BITMAP
20
20
60
f8
60
60
60
60
64
64
38
20
20
10
60
ENDCHAR
STARTCHAR abovedot
ENCODING 255
SWIDTH 333 0
DWIDTH 5 0
BBX 2 2 1 9
BITMAP
c0
c0
ENDCHAR
ENDFONT
